<svg xmlns="http://www.w3.org/2000/svg" width="31" height="35.261" viewBox="0 0 31 35.261">
  <g id="wallet" transform="translate(-45 -16)" style="isolation: isolate">
    <path id="Path_1" data-name="Path 1" d="M165,23h13.37V35.488H165Z" transform="translate(-111.185 -6.486)" fill="#71c618"/>
    <path id="Path_2" data-name="Path 2" d="M75.665,164.058a2.212,2.212,0,0,0-.455.047l6.62-2.375v2.328Z" transform="translate(-27.991 -135.025)" fill="#9b6831"/>
    <path id="Path_3" data-name="Path 3" d="M349.2,85.09v7.958h-2.5V85.969h.018Z" transform="translate(-279.537 -64.015)" fill="#9b6831"/>
    <path id="Path_4" data-name="Path 4" d="M196.82,55h-5.793C191,56.616,190.1,57.58,189,57.632v7.505h9.844V57.632C197.742,57.58,196.846,56.616,196.82,55Z" transform="translate(-133.422 -36.135)" fill="#50dd5a"/>
    <path id="Path_5" data-name="Path 5" d="M229.22,147.255a2.292,2.292,0,0,1-.367,1.25v.005h-3.874a2.306,2.306,0,1,1,4.241-1.255Z" transform="translate(-166.414 -119.477)" fill="#71c618"/>
    <path id="Path_6" data-name="Path 6" d="M78.889,192l-26.121.062a2.235,2.235,0,0,0-1.763,2.172v17.431a2.248,2.248,0,0,0,2.234,2.225H78.889a2.248,2.248,0,0,0,2.234-2.225V194.235A2.256,2.256,0,0,0,78.889,192Z" transform="translate(-5.564 -163.071)" fill="#be884e"/>
    <path id="Path_7" data-name="Path 7" d="M350.285,281.98v8.681h-5.807a2.938,2.938,0,0,1-2.938-2.938v-2.8a2.938,2.938,0,0,1,2.938-2.938Z" transform="translate(-274.756 -246.441)" fill="#9b6831"/>
    <path id="Path_8" data-name="Path 8" d="M53.2,212.453V195.022a2.235,2.235,0,0,1,1.763-2.172h-2.2A2.235,2.235,0,0,0,51,195.022v17.431a2.248,2.248,0,0,0,2.234,2.225h2.2a2.248,2.248,0,0,1-2.234-2.225Z" transform="translate(-5.559 -163.859)" fill="#cca67f"/>
    <path id="Path_9" data-name="Path 9" d="M192.2,55.294h4.632q-.012-.143-.015-.294h-5.793C191,56.616,190.1,57.58,189,57.632v7.505h1.175V57.926C191.277,57.874,192.176,56.91,192.2,55.294Z" transform="translate(-133.422 -36.135)" fill="#d8ff33"/>
    <g id="Group_1" data-name="Group 1" transform="translate(45 16)">
      <path id="Path_10" data-name="Path 10" d="M73.325,28.488h-3.2V21a.452.452,0,0,0-.2-.36.43.43,0,0,0-.4-.055l-1.9.677v-4.8A.479.479,0,0,0,67.163,16H53.839a.481.481,0,0,0-.465.462v9.86l-6.308,2.262A2.658,2.658,0,0,0,45,31.164V48.595a2.692,2.692,0,0,0,2.675,2.666H73.325A2.692,2.692,0,0,0,76,48.595V31.164A2.7,2.7,0,0,0,73.325,28.488Zm-5.7-6.289,1.616-.573v6.862H67.626Zm-13.37-5.317H66.744V28.488h-.882V21.424a.429.429,0,0,0-.406-.44c-.971-.045-1.6-.911-1.625-2.185a.447.447,0,0,0-.434-.448H57.6a.453.453,0,0,0-.441.447c-.021,1.294-.634,2.133-1.619,2.178a.436.436,0,0,0-.408.447v2.51a.441.441,0,1,0,.882,0V21.81a2.693,2.693,0,0,0,2-2.578h4.966a2.7,2.7,0,0,0,2,2.575v6.681H63.123a2.46,2.46,0,0,0,.124-.8,2.747,2.747,0,0,0-5.493,0,2.479,2.479,0,0,0,.124.8H56.019V25.795a.441.441,0,0,0-.882,0v2.694h-.882Zm8.109,10.8a1.715,1.715,0,0,1-.187.8H58.822a1.7,1.7,0,0,1-.188-.8,1.865,1.865,0,0,1,3.73,0Zm-8.991-.428v1.23h-3.49ZM75.118,35.1H73.894a.441.441,0,1,0,0,.882h1.224v7.787h-5.4a2.462,2.462,0,0,1-2.464-2.487v-2.8a2.471,2.471,0,0,1,2.464-2.5H72.18a.441.441,0,1,0,0-.882H69.722a3.353,3.353,0,0,0-3.345,3.378v2.8a3.345,3.345,0,0,0,3.345,3.368h5.4v3.946a1.809,1.809,0,0,1-1.793,1.784H47.675a1.809,1.809,0,0,1-1.793-1.784V31.164a1.8,1.8,0,0,1,1.413-1.741,1.94,1.94,0,0,1,.38-.053H73.325a1.818,1.818,0,0,1,1.793,1.794Z" transform="translate(-45 -16)" fill="#284268"/>
      <path id="Path_11" data-name="Path 11" d="M372.441,315.98a.441.441,0,0,0-.441.441v2.8a.441.441,0,1,0,.882,0v-2.8A.441.441,0,0,0,372.441,315.98Z" transform="translate(-347.979 -293.944)" fill="#284268"/>
      <path id="Path_12" data-name="Path 12" d="M402.441,315.98a.441.441,0,0,0-.441.441v2.8a.441.441,0,0,0,.882,0v-2.8A.441.441,0,0,0,402.441,315.98Z" transform="translate(-375.775 -293.944)" fill="#284268"/>
    </g>
  </g>
</svg>
